{"title":"Down - Nola - Custom Remaster by MC Lurken 24-bit 96kHz flac","uid":7677330,"size":1333523638,"categoryP":"audio","categoryS":"flac","magnet":"?xt=urn:btih:df9b7c5715af733ffc918554ab7d37d3189e9770&amp;dn=Down+-+Nola+-+Custom+Remaster+by+MC+Lurken+24-bit+96kHz+flac&amp;tr=udp%3A%2F%2Ftracker.openbittorrent.com%3A80&amp;tr=udp%3A%2F%2Fopen.demonii.com%3A1337&amp;tr=udp%3A%2F%2Ftracker.coppersurfer.tk%3A6969&amp;tr=udp%3A%2F%2Fexodus.desync.com%3A6969","seeders":1,"leechers":0,"uploader":"beavis39","files":-1,"time":1348729144,"description":"Down - Nola - Custom Remaster by MC Lurken (a.k.a. Beavis39)\n\n\n\n1 - Temptation's Wings\n2 - Lifer\n3 - Pillars Of Eternity\n4 - Rehab\n5 - Hail The Leaf\n6 - Underneath Everything\n7 - Eyes Of The South\n8 - Jail\n9 - Losing All\n10 - Stone The Crow\n11 - Pray For The Locust\n12 - Swan Song\n13 - Bury Me In Smoke\n\n\n\nSetup:\n-HP G72-250US\n-Intel Core i3 M350 2.27GHz\n-8Gb PC3-10700 RAM\n-Win7 64-bit SP1\n-SB X-Fi Surround 5.1\n\n\nProcess:\n-Original 16-bit/44.1kHz files joined in Wavelab 6\n-Remove DC offset and save as 64-bit float/44.1kHz\n-Resample to 384kHz in Wavelab w/crystal resampler ultra(slow) relax background priority\n-Create new 64-bit/384kHz master recording in Wavelab\n\n\nAs reported in Wavelab:\n-Original 16-bit/44.1kHz: Apparent Bit Resolution = 16, Peak = 0db\n-With DC Offset Removed: Apparent Bit Resolution = 19, Peak = 0db\n-64-bit/384kHz Recording: Apparent Bit Resolution = 38, Peak = 1.199db\n\n\n-Resample new 64-bit/384kHz master recording to 64-bit/96kHz in Wavelab w/crystal resampler ultra(slow) relax background priority\n-Apply MBIT+ 24-bit Dither in Wavelab w/Izotope Ozone 5 VST Plugin\n-Flac encode level 0 with Trader's Little Helper\n-Tag and pic with xrecode II\n\n\n\nfoobar2000 1.1.14a / Dynamic Range Meter 1.1.1\nlog date: 2012-09-26 23:26:44\n\n--------------------------------------------------------------------------------\nAnalyzed: ? / ?\n--------------------------------------------------------------------------------\n\nDR         Peak         RMS     Duration Track\n--------------------------------------------------------------------------------\nDR8        0.00 dB    -9.68 dB      4:25 ?-01 - Temptation's Wings\nDR8        0.00 dB    -8.68 dB      4:39 ?-02 - Lifer\nDR8       -0.18 dB    -9.74 dB      3:55 ?-03 - Pillars Of Eternity\nDR8        0.00 dB    -9.82 dB      4:03 ?-04 - Rehab\nDR9        0.00 dB   -10.67 dB      3:29 ?-05 - Hail The Leaf\nDR9        0.00 dB   -10.21 dB      4:46 ?-06 - Underneath Everything\nDR9        0.00 dB   -12.52 dB      5:14 ?-07 - Eyes Of The South\nDR10      -0.58 dB   -13.85 dB      5:17 ?-08 - Jail\nDR8        0.00 dB    -9.83 dB      4:22 ?-09 - Losing All\nDR8       -0.11 dB   -10.32 dB      4:43 ?-10 - Stone The Crow\nDR12      -0.26 dB   -15.77 dB      1:08 ?-11 - Pray For The Locust\nDR9       -0.06 dB    -9.95 dB      3:35 ?-12 - Swan Song\nDR9       -0.08 dB   -11.29 dB      7:04 ?-13 - Bury Me In Smoke\n--------------------------------------------------------------------------------\n\nNumber of tracks:  13\nOfficial DR value: DR9\n\nSamplerate:        96000 Hz\nChannels:          2\nBits per sample:   24\nBitrate:           4608 kbps\nCodec:             PCM\n\n\n\nenjoy :)","torrent":{"xt":"urn:btih:df9b7c5715af733ffc918554ab7d37d3189e9770","amp;dn":"Down+-+Nola+-+Custom+Remaster+by+MC+Lurken+24-bit+96kHz+flac","amp;tr":["udp%3A%2F%2Ftracker.openbittorrent.com%3A80","udp%3A%2F%2Fopen.demonii.com%3A1337","udp%3A%2F%2Ftracker.coppersurfer.tk%3A6969","udp%3A%2F%2Fexodus.desync.com%3A6969"],"infoHash":"df9b7c5715af733ffc918554ab7d37d3189e9770","infoHashBuffer":{"type":"Buffer","data":[223,155,124,87,21,175,115,63,252,145,133,84,171,125,55,211,24,158,151,112]},"announce":[],"urlList":[]}}